<?xml version="1.0" encoding="UTF-8"?><svg id="Layer_1" xmlns="http://www.w3.org/2000/svg" xmlns:xlink="http://www.w3.org/1999/xlink" viewBox="0 0 500 500"><defs><clipPath id="clippath"><rect x="73.2" y="73.2" width="353.6" height="353.6" fill="none"/></clipPath></defs><g id="Layer_1-2"><g clip-path="url(#clippath)"><path d="M306.7,73.2h0c-22.2,0-40.1,18-40.1,40.1h0c0,22.2,18,40.1,40.1,40.1h0c22.2,0,40.1-18,40.1-40.1h0c0-22.2-18-40.1-40.1-40.1Z" fill="#fff"/><path d="M415,221.7c7.3-7.3,11.8-17.3,11.8-28.4v-1.2c0-21.5-17.4-39-39-39h-1c-22.3,0-40.3,18-40.3,40.1h0c0,11.1,4.5,21.1,11.8,28.4l12.3,12.3c8.7,8.7,8.7,23.1,0,31.8l-12.3,12.3c-7.3,7.3-11.8,17.3-11.8,28.4v17.4c0,12.4-10.1,22.5-22.5,22.5h-17.4c-11.1,0-21.1,4.5-28.4,11.8l-12.3,12.2c-8.7,8.7-23.1,8.7-31.8,0l-12.3-12.3c-7.3-7.3-17.3-11.8-28.4-11.8h-17.4c-12.4,0-22.5-10.1-22.5-22.5v-17.4c0-11.1-4.5-21.1-11.8-28.4l-12.3-12.3c-8.7-8.7-8.7-23.1,0-31.8l12.3-12.3c7.3-7.3,11.8-17.3,11.8-28.4v-17.4c0-12.4,10.1-22.5,22.5-22.5h17.4c22.2,0,40.1-18,40.1-40.1h0c0-22.2-18-40.1-40.1-40.1h0c-22.2,0-40.1,18-40.1,40.1v17.4c0,12.4-10.1,22.5-22.5,22.5h-17.4c-22.2,0-40.1,18-40.1,40.1h0c0,11.1,4.5,21.1,11.8,28.4l12.3,12.3c8.7,8.7,8.7,23.1,0,31.8l-12.3,12.3c-7.3,7.3-11.8,17.3-11.8,28.4h0c0,22.2,18,40.1,40.1,40.1h17.4c12.4,0,22.5,10.1,22.5,22.5v17.4c0,22.2,18,40.1,40.1,40.1h0c11.1,0,21.1-4.5,28.4-11.8l12.3-12.3c8.7-8.7,23.1-8.7,31.8,0l12.3,12.3c7.3,7.3,17.3,11.8,28.4,11.8h0c22.2,0,40.1-18,40.1-40.1v-17.4c0-12.4,10.1-22.5,22.5-22.5h17.4c22.2,0,40.1-18,40.1-40.1h0c0-11.1-4.5-21.1-11.8-28.4l-12.3-12.3c-8.7-8.7-8.7-23.1,0-31.8l12.3-12.3.1.2Z" fill="#fff"/></g></g></svg>